,
.   http://www.scenetime.com/signup.php  ---&gt;  Hottest scene tracker on the net !!!  

    Join Now   http://www.scenetime.com/signup.php

    seed back for speed


 



...................................NFO:.................................................SIMS presents to you ... Rampart 2011 DVDSCR XviD-SIMS

eneral
Format                                   : AVI
Format/Info                              : Audio Video Interleave
Format profile                           : OpenDML
File size                                : 1.64 GiB
Duration                                 : 1h 48mn
Overall bit rate                         : 2 174 Kbps
Writing application                      : Lavf51.12.1

Video
ID                                       : 0
Format                                   : xvid
Codec ID                                 : xvid
Duration                                 : 1h 48mn
Bit rate                                 : 2 031 Kbps
Width                                    : 720 pixels
Height                                   : 368 pixels
Display aspect ratio                     : 1.957
Frame rate                               : 29.970 fps
Bits/(Pixel*Frame)                       : 0.256
Stream size                              : 1.53 GiB (93%)

Audio
ID                                       : 1
Format                                   : MPEG Audio
Format version                           : Version 1
Format profile                           : Layer 3
Mode                                     : Joint stereo
Mode extension                           : MS Stereo
Codec ID                                 : 55
Codec ID/Hint                            : MP3
Duration                                 : 1h 48mn
Bit rate mode                            : Constant
Bit rate                                 : 128 Kbps
Channel(s)                               : 2 channels
Sampling rate                            : 44.1 KHz
Compression mode                         : Lossy
Stream size                              : 40.0 MiB (2%)
Alignment                                : Aligned on interleaves
Interleave, duration                     : 65 ms (1.94 video frames)
Interleave, preload duration             : 26 ms
Writing library                          : LAME3.97



